# xmcd
#
# Track frame offsets: 
#        150
#        10229
#        22507
#        32493
#        44608
#        56054
#        65061
#        78851
#        90047
#        103733
#        119167
#        132215
#        146044
#
# Disc length: 2109 seconds
#
# Revision: 0
# Processed by: cddbd v1.5.2PL0 Copyright (c) Steve Scherf et al.
# Submitted via: ExactAudioCopy v1.0b1
#
DISCID=a6083b0d
DTITLE=Various Artist - Country Guys
DYEAR=2006
DGENRE=Country
TTITLE0=Don Gibson - Lonesome Number One
TTITLE1=Sonewall jackson - I Love You Because
TTITLE2=Hank Locklin - Please Help Me, I'm Falling
TTITLE3=Jack Greene - There Goes My Everything
TTITLE4=Porter Wagoner - Misery Loves Company
TTITLE5=Faron Young - Alone With You
TTITLE6=Johnny Paycheck - Someone to Give My Love To
TTITLE7=Jimmy Dean - Little Black Book
TTITLE8=David Houston - Almost Persuaded
TTITLE9=Cal Smith - Country Bumpkin
TTITLE10=Charlie Rich - The Most Beautiful Girl
TTITLE11=Don Williams - Ruby Tuesday
TTITLE12=Faron Young - Sweet Dreams
EXTD=
EXTT0=
EXTT1=
EXTT2=
EXTT3=
EXTT4=
EXTT5=
EXTT6=
EXTT7=
EXTT8=
EXTT9=
EXTT10=
EXTT11=
EXTT12=
PLAYORDER=
